<svg width="2500" height="2500" viewBox="0 0 2500 2500" fill="none" xmlns="http://www.w3.org/2000/svg">
<rect width="2500" height="2500" fill="white"/>
<path d="M664.003 1716.43L669.644 1378.24C668.074 1377.83 658.364 1376.96 652.583 1379.69C639.499 1385.85 636.848 1387.95 621.612 1404.35C606.377 1420.74 598.76 1435.11 590.561 1461.19C582.362 1487.27 582.812 1524.54 590.561 1552.39C596.464 1573.61 608.917 1593.47 617.077 1606.24C619.538 1611.36 622.979 1623.18 615.507 1625.89C609.901 1627.93 608.913 1627.81 601.784 1625.89C595.077 1624.09 582.362 1612.64 570.965 1598.91C559.567 1585.19 539.739 1551.52 534.563 1504.77C529.388 1458.02 562.01 1408.59 588.002 1384.92C613.995 1361.26 641.034 1349.92 669.644 1342.42C698.253 1334.92 725.758 1338.23 734.771 1344.39C741.981 1349.32 742.504 1358.93 741.865 1363.12C738.667 1422.78 739.248 1539.31 739.248 1539.31C739.248 1539.31 760.784 1511.4 774.056 1493.14C815.413 1436.21 865.781 1346.7 871.363 1342.42C878.341 1337.07 894.317 1337.15 906.659 1338.23C919.952 1339.39 936.413 1341.24 939.665 1342.42C943.852 1343.93 945.166 1346.66 944.782 1352.01C944.448 1356.66 940.688 1359.22 933.036 1359.97C927.064 1360.57 922.534 1364.75 921.139 1366.96L820.075 1504.77C851.398 1586.55 916.091 1753.45 924.279 1766.85C934.513 1783.59 947.422 1791.97 958.761 1794.41C970.658 1796.97 971.338 1800.57 971.205 1804.82C971.072 1809.07 966.646 1811.68 961.727 1811.68C939.456 1812.05 897.623 1813.33 889.447 1811.68C883.981 1810.57 873.224 1805.86 862.641 1797.67C854.174 1791.11 847.754 1780.01 845.603 1775.28L764.834 1559.08L739.248 1586.12C737.988 1623.78 734.829 1700.95 732.27 1715.09C728.925 1733.58 719.919 1747.19 704.01 1761.38C693.286 1770.95 676.327 1780.66 662.039 1783.11C661.487 1783.21 660.927 1783.24 660.368 1783.24C643.404 1783.24 631.342 1782.95 619.81 1782.66C610.783 1782.44 608.149 1773.9 608.306 1768.04C608.347 1766.51 609.655 1765.4 611.19 1765.31C621.417 1764.71 639.686 1762.98 649.059 1756.21C659.293 1748.81 663.286 1726.61 664.003 1716.43Z" fill="currentColor"/>
<path fill-rule="evenodd" clip-rule="evenodd" d="M1137.31 1692.23V1518.65C1137.31 1510.98 1131.9 1496.61 1112.77 1496.32C1097.46 1496.09 1090.61 1504.29 1089.1 1508.42C1088.81 1508.31 1088.36 1507.98 1087.66 1507.49C1085.58 1506.01 1081.38 1503.02 1073.17 1499.81C1062.2 1495.53 1055.28 1493.96 1040.17 1492.91L1039.9 1492.89C1024.94 1491.6 983.761 1502.33 961.465 1529.47C926.851 1571.59 922.214 1623.92 924.795 1664.17C928.926 1708.82 954.429 1734.68 979.962 1740.44C1007.25 1746.59 1025.57 1740.44 1043.16 1727.99C1057.18 1717.26 1067.67 1699.2 1073.08 1689.88L1073.17 1689.73C1073.36 1690.49 1073.56 1691.35 1073.79 1692.29C1075.67 1700.19 1078.94 1713.95 1086.16 1724.29C1094.4 1736.08 1103.6 1741.9 1117.83 1742.35C1127.15 1742.65 1140.79 1735.77 1140.79 1735.77C1140.79 1735.77 1144.43 1733.52 1146.58 1731.82C1154.49 1725.56 1160.77 1714.52 1162.83 1708.22C1161.93 1708.25 1160.77 1708.48 1159.43 1708.74C1155.62 1709.49 1150.37 1710.51 1145.62 1708.22C1139.29 1705.15 1137.42 1696.92 1137.31 1692.23ZM1073.17 1592.04C1073.17 1592.04 1073.17 1643.52 1066.13 1664.17C1060.06 1681.99 1048.57 1694.78 1029.44 1695.42C1010.31 1696.06 990.249 1678.79 992.458 1613.72C994.668 1548.66 1014.52 1525.05 1039.33 1525.05C1060.52 1525.05 1073.17 1540.34 1073.17 1559.09V1592.04Z" fill="currentColor"/>
<path fill-rule="evenodd" clip-rule="evenodd" d="M1180.31 1521.12C1177.78 1519.39 1173.07 1518.78 1168.92 1518.66C1165.65 1518.56 1162.84 1516 1162.84 1512.73V1512.73C1162.84 1510.76 1163.86 1508.95 1165.57 1508C1172.3 1504.25 1190.08 1494.97 1203.6 1493.51C1216.12 1492.17 1229.54 1492.47 1235.7 1496.36C1242.27 1500.52 1245.99 1508.41 1246.4 1513.61C1246.81 1518.81 1246.4 1549.8 1246.4 1549.8C1250.8 1541.62 1262.43 1522.93 1273.75 1513.61C1275.25 1512.38 1276.62 1511.2 1277.94 1510.06C1289.1 1500.43 1310.66 1495.69 1336.3 1496.36C1380.55 1497.53 1408.64 1556.37 1408.93 1607.02C1409.23 1659.47 1400.55 1684.01 1377.82 1713.9C1359.63 1737.81 1339.6 1744.38 1307.19 1744.38C1277.94 1744.38 1260.99 1726.58 1249.42 1718.09V1847C1249.42 1859.16 1241.63 1867.7 1232.05 1875.86C1224.39 1882.39 1208.3 1885.74 1201.22 1886.6C1193.25 1887.4 1181.04 1888.17 1175.69 1886.6C1171.97 1885.51 1173.89 1881.02 1175.69 1876.66C1176.59 1874.48 1179.18 1868.49 1181 1864.3C1182.25 1861.4 1182.91 1858.29 1182.93 1855.13L1184.47 1549.8C1184.74 1541.37 1184.29 1523.83 1180.31 1521.12ZM1292.75 1539.51C1309.43 1536.58 1339.56 1539.51 1339.56 1624.41C1339.56 1698.78 1316.12 1708.38 1292.75 1706.75C1273.8 1705.43 1249.42 1694.72 1249.42 1641.5C1246.4 1574.87 1266.93 1543 1292.75 1539.51Z" fill="currentColor"/>
<path d="M1472.82 1493.05C1460.9 1493.22 1438.25 1503.14 1438.25 1503.14C1438.25 1503.14 1420.75 1511.52 1420.31 1514.16C1420.01 1515.93 1420.4 1516.85 1421.12 1517.47C1422.32 1518.5 1424.04 1518.63 1425.62 1518.61C1430.45 1518.55 1437.78 1518.69 1440.72 1522.77C1444.43 1527.92 1443.8 1530.53 1443.8 1536.61V1686.63C1443.8 1732.8 1444.96 1733.51 1452.79 1737.95C1461.25 1742.75 1470.61 1741.23 1480.61 1741.23C1494.48 1741.23 1500.67 1740.71 1506.37 1735.36C1510.85 1731.15 1510.85 1727.55 1510.85 1725.3L1510.85 1725.18V1646.68C1510.85 1617.61 1519.51 1602.66 1530.91 1587.78C1542.31 1572.89 1556.15 1566.67 1565.8 1566.67C1575.45 1566.67 1578.94 1568.24 1583.94 1573.94C1588.94 1579.64 1594.89 1581.65 1603.48 1581.03C1609.56 1580.6 1612.82 1574.37 1613.19 1571.03C1613.36 1568.96 1613.61 1560.24 1613.19 1541.96C1612.67 1519.1 1614.33 1504.89 1610.08 1499.07C1607.42 1495.43 1602.52 1493.05 1597.95 1493.05C1590.78 1493.05 1586.92 1492.94 1580.68 1493.05C1569.09 1493.26 1551.67 1506.37 1536.78 1522.77C1524.87 1535.89 1510.85 1567.08 1505.32 1581.03C1505.38 1560.58 1505.32 1518.58 1505.32 1514.16C1505.32 1508.73 1505.32 1504.33 1499.6 1498.61C1492.33 1491.34 1487.33 1492.85 1472.82 1493.05Z" fill="currentColor"/>
<path d="M1689.13 1492.55C1706.88 1492.55 1712.18 1504.62 1712.18 1516.9V1717.57C1712.18 1726.24 1705.43 1741.41 1680.08 1741.41C1653.31 1741.41 1642.98 1730.66 1642.98 1717.57C1642.98 1705.94 1642.84 1596.04 1642.98 1542.54C1642.98 1539.64 1641.87 1534.29 1637.05 1531.44C1635.33 1530.42 1633.74 1529.55 1632.4 1528.85C1630.91 1528.08 1630.29 1525.06 1631.52 1523.93C1637.67 1518.29 1651.15 1506.37 1662.87 1499.17C1671.94 1493.58 1675.62 1492.55 1689.13 1492.55Z" fill="currentColor"/>
<path fill-rule="evenodd" clip-rule="evenodd" d="M1798.09 1495.17C1785.96 1493.12 1779.81 1489.08 1777.05 1485.66C1776.23 1484.65 1773.59 1484.49 1773 1485.65L1758.37 1514.3C1756.84 1518.33 1755.11 1527.39 1759.42 1533.14C1765.18 1539.84 1769.36 1540.18 1775.35 1540.18C1785.06 1540.18 1856.53 1544.08 1856.53 1544.08C1830.16 1574.24 1777.02 1635.07 1775.35 1637.11C1773.26 1639.67 1772.73 1641.24 1772.73 1645.31C1772.73 1646.93 1773.16 1648.43 1773.7 1649.65C1774.51 1651.48 1776.51 1652.28 1778.51 1652.16C1792.25 1651.35 1817.67 1649.96 1830.47 1649.62C1841.72 1649.31 1844.73 1654.67 1846.29 1656.54C1849.4 1660.25 1850.47 1662.04 1852.8 1666.01C1856.41 1672.15 1859.47 1679.81 1860.17 1684.91C1860.52 1687.45 1859.06 1689.68 1857.13 1691.38C1836.03 1709.95 1792.71 1750.34 1766.69 1782.67C1732.56 1825.06 1727.03 1844.65 1727.03 1869.25C1727.03 1893.84 1738.89 1927.57 1798.09 1930.77C1856.57 1933.93 1880.03 1901.05 1898.16 1875.64C1898.39 1875.33 1898.61 1875.02 1898.83 1874.71C1917.06 1849.18 1927.41 1809.06 1932.53 1759.4C1936.62 1719.67 1928.15 1689.39 1923.4 1679.21L1973.17 1646.42C1974.98 1656.13 1982.03 1679.66 1995.85 1696.08C2013.12 1716.6 2033.24 1739.86 2094.76 1739.4C2154.02 1739.4 2198.15 1688.81 2198.15 1605.42C2199.55 1526.57 2134.89 1490.58 2094.76 1490.58C2054.64 1490.58 2033.88 1497.44 1999.98 1534.77C1975.18 1566.45 1972.53 1606 1972.53 1622.23L1908.86 1655.37C1906.46 1651.34 1898.43 1641.27 1885.54 1633.22C1872.66 1625.17 1850.98 1622.38 1841.76 1622C1850.87 1613.29 1872.38 1592.66 1885.54 1579.78C1901.54 1564.12 1919.19 1531.64 1926.78 1517.67C1927 1517.27 1927.21 1516.88 1927.41 1516.51C1934.1 1504.22 1931.78 1500.42 1930.3 1497.99C1930.18 1497.8 1930.07 1497.62 1929.97 1497.44C1928.85 1495.49 1918.69 1495.11 1913.74 1495.17C1882.63 1496.43 1815.95 1498.2 1798.09 1495.17ZM2090.75 1519.54C2129.01 1520 2128.41 1576.84 2127.93 1617.9C2127.48 1656.82 2118.2 1709.68 2092.44 1711.03C2091.88 1711.02 2091.32 1711.02 2090.75 1711.02C2065.69 1711.02 2046.45 1672.18 2046.45 1624.42V1608.04L2084.47 1591.93C2088.48 1590.25 2089.18 1585.3 2084.47 1584.55C2079.86 1584.08 2056.47 1591.12 2046.45 1594.49C2047.02 1580.77 2050.28 1555.18 2055.2 1544.12C2062.32 1531.28 2063.36 1519.2 2090.75 1519.54ZM1870.13 1725.56C1868.7 1756.16 1862.81 1823.63 1850.71 1848.66C1835.59 1879.94 1815.36 1906.81 1788.49 1892.74C1761.63 1878.67 1784.58 1821.99 1804.85 1794.65C1825.12 1767.31 1846.29 1740.1 1870.13 1725.56Z" fill="currentColor"/>
<path fill-rule="evenodd" clip-rule="evenodd" d="M1646.86 588.936C1877.54 488.336 2078.6 804.443 1797.62 965.737C1704.47 1019.15 1573.04 1047.1 1462.25 1061.75H2193.66C2196.17 1061.75 2198.2 1063.79 2198.2 1066.29V1149.01C2198.2 1149.01 2198.19 1149.02 2198.19 1149.02V1149.02C2198.18 1149.02 2198.17 1149.03 2198.17 1149.03V1349.25C2198.17 1351.76 2196.14 1353.79 2193.64 1353.79H2116.49C2113.99 1353.79 2111.95 1355.82 2111.95 1358.33V1420.62C2111.95 1423.13 2109.92 1425.16 2107.42 1425.16H2030.27C2027.77 1425.16 2025.73 1423.13 2025.73 1420.62V1272.11C2025.73 1269.6 2027.77 1267.57 2030.27 1267.57H2107.42C2109.92 1267.57 2111.95 1265.54 2111.95 1263.03V1153.56C2111.95 1151.05 2109.92 1149.02 2107.42 1149.02H392.93C390.424 1149.02 388.392 1151.05 388.392 1153.56V1263.03C388.392 1265.54 390.424 1267.57 392.93 1267.57H470.074C472.58 1267.57 474.612 1269.6 474.612 1272.11V1778.29C474.612 1780.79 472.58 1782.82 470.074 1782.82H392.93C390.424 1782.82 388.392 1780.79 388.392 1778.29V1358.33C388.392 1355.82 386.361 1353.79 383.854 1353.79H306.711C304.205 1353.79 302.173 1351.76 302.173 1349.25V1066.29C302.173 1063.79 304.205 1061.75 306.711 1061.75H1038.11C927.318 1047.09 795.886 1019.15 702.739 965.737C421.756 804.456 622.822 488.35 853.499 588.936C929.165 621.933 997.909 685.976 1056.13 757.018C1077.75 783.507 1097.96 810.938 1116.52 838.144C1180.14 931.234 1224.33 1021.33 1241.89 1059.16C1242.63 1060.77 1244.23 1061.77 1246 1061.77H1254.35C1256.12 1061.77 1257.71 1060.77 1258.46 1059.16C1276.01 1021.33 1320.2 931.234 1383.82 838.144C1402.39 810.925 1422.6 783.507 1444.23 757.018C1502.45 685.976 1571.18 621.933 1646.86 588.936ZM1224.59 1061.77C1228.6 1061.77 1230.75 1057.1 1227.93 1054.25C1057.64 881.803 657.171 616.785 594.394 775.868C538.168 918.378 916.832 1019.48 1148.62 1061.69C1148.89 1061.74 1149.15 1061.77 1149.42 1061.77H1224.59ZM1905.96 775.868C1843.19 616.785 1442.74 881.803 1272.43 1054.25C1269.61 1057.1 1271.76 1061.77 1275.76 1061.77H1350.93C1351.21 1061.77 1351.47 1061.74 1351.74 1061.69C1583.54 1019.48 1962.19 918.391 1905.96 775.868Z" fill="url(#paint0_linear_1057_9358)"/>
<path d="M1712.76 1423.18C1712.76 1398.64 1696.25 1388.23 1675.42 1388.23C1649.1 1388.23 1639.55 1402.63 1639.55 1423.18C1639.55 1444.41 1652.28 1456.5 1675.42 1456.73C1698.57 1456.97 1712.76 1447.22 1712.76 1423.18Z" fill="url(#paint1_linear_1057_9358)"/>
<defs>
<linearGradient id="paint0_linear_1057_9358" x1="302.173" y1="1176.19" x2="2198.2" y2="1176.19" gradientUnits="userSpaceOnUse">
<stop stop-color="#E1C782"/>
<stop offset="0.533654" stop-color="#DBBA6D"/>
<stop offset="1" stop-color="#C39E3A"/>
</linearGradient>
<linearGradient id="paint1_linear_1057_9358" x1="1639.55" y1="1422.49" x2="1712.76" y2="1422.49" gradientUnits="userSpaceOnUse">
<stop stop-color="#E1C782"/>
<stop offset="0.533654" stop-color="#DBBA6D"/>
<stop offset="1" stop-color="#C39E3A"/>
</linearGradient>
</defs>
</svg>
